Superheroes.2011.BRRip.x264.AAC-UNiQUE

General
Complete name                            : Superheroes 2011 BRRip x264 AAC-UNiQUE.mp4
Format                                   : MPEG-4
Format profile                           : Base Media
Codec ID                                 : isom
File size                                : 700 MiB
Duration                                 : 1h 21mn
Overall bit rate mode                    : Variable
Overall bit rate                         : 1 203 Kbps
Encoded date                             : UTC 2012-11-19 14:21:47

Video
ID                                       : 1
Format                                   : AVC
Format/Info                              : Advanced Video Codec
Format profile                           : High@L4.1
Format settings, CABAC                   : Yes
Format settings, ReFrames                : 3 frames
Codec ID                                 : avc1
Codec ID/Info                            : Advanced Video Coding
Duration                                 : 1h 21mn
Bit rate mode                            : Variable
Bit rate                                 : 1 076 Kbps
Maximum bit rate                         : 40.0 Mbps
Width                                    : 720 pixels
Height                                   : 400 pixels
Display aspect ratio                     : 16:9
Frame rate mode                          : Constant
Frame rate                               : 23.976 fps
Color space                              : YUV
Chroma subsampling                       : 4:2:0
Bit depth                                : 8 bits
Scan type                                : Progressive
Bits/(Pixel*Frame)                       : 0.156
Stream size                              : 626 MiB (89%)
Writing library                          : x264 core 129 r2230 1cffe9f

Audio
ID                                       : 2
Format                                   : AAC
Format/Info                              : Advanced Audio Codec
Format profile                           : LC
Codec ID                                 : 40
Duration                                 : 1h 21mn
Bit rate mode                            : Variable
Bit rate                                 : 123 Kbps
Maximum bit rate                         : 161 Kbps
Channel(s)                               : 2 channels
Channel positions                        : Front: L R
Sampling rate                            : 48.0 KHz
Compression mode                         : Lossy
Stream size                              : 71.4 MiB (10%)
Language                                 : English
Encoded date                             : UTC 2012-11-19 14:22:15

Source                                   : 720p.BluRay.x264-iFPD - Thanks!    

Storyline
A journey inside the world of real life caped crusaders. From all over America, these self-proclaimed crime fighters, don masks, homemade costumes and elaborate utility belts in an attempt to bring justice to evildoers everywhere.

iMDB: http://www.imdb.com/title/tt1792621/

Screens:
 
http://s19.postimage.org/9e6wgmidf/U5_KS2_Y29.png 
http://s19.postimage.org/xvz04ikxv/28_UVm_I8m.png 
http://s19.postimage.org/93zdxa3r7/hn6_RBo_V8.png 
http://s19.postimage.org/46ltc61s3/6no_Ofa_OK.png 
http://s19.postimage.org/xn1fel85f/x93_Uc_JSW.png 
http://s19.postimage.org/ts2mpredf/Rlu_Bh_MH.png